Coordinates
version=1
nRows=11
nColumns=36
inDegrees=yes

Units are S.I. units (second, meters, Newtons, ...)
If the header above contains a line with 'inDegrees', this indicates whether rotational values are in degrees (yes) or radians (no).

endheader
time	pelvis_tilt	pelvis_list	pelvis_rotation	pelvis_tx	pelvis_ty	pelvis_tz	hip_flexion_r	hip_adduction_r	hip_rotation_r	knee_angle_r	knee_angle_r_beta	ankle_angle_r	subtalar_angle_r	mtp_angle_r	hip_flexion_l	hip_adduction_l	hip_rotation_l	knee_angle_l	knee_angle_l_beta	ankle_angle_l	subtalar_angle_l	mtp_angle_l	lumbar_extension	lumbar_bending	lumbar_rotation	arm_flex_r	arm_add_r	arm_rot_r	elbow_flex_r	pro_sup_r	arm_flex_l	arm_add_l	arm_rot_l	elbow_flex_l	pro_sup_l
      7.91666670	    -16.17357014	      4.20801376	      3.98024959	      0.95721948	      0.94707757	      0.03625974	     34.80572523	     -7.82975789	     -4.10378110	     36.49655777	      0.63698510	      0.30017965	      1.25347445	     -7.49999987	     29.03898044	      0.35925761	     -5.45699069	     27.66634625	      0.48286883	     -7.98445650	    -12.79893138	     -7.49999987	     -9.33093990	      0.52746506	      5.12921290	    -33.05789595	    -16.65529004	    -21.32287635	     74.70587433	     89.72811747	     -9.70816769	    -36.18999218	    -24.40967199	     82.52937552	     88.50539356
      7.93333330	    -15.67016474	      4.24487237	      4.40131303	      0.96545620	      0.98181143	      0.03860820	     28.84637828	     -7.58913833	     -5.94320232	     26.50974239	      0.46268229	     -7.29886106	      3.94446934	     -7.49999987	     24.26902959	      0.53376189	     -5.82314900	     18.57495346	      0.32419410	    -18.29718725	     -9.70548504	     -7.49999987	     -8.09209764	      0.39546420	      5.88859844	    -38.87762599	    -15.05120781	    -28.39819909	     76.79523002	     89.09911155	    -13.05341427	    -38.82886777	    -28.80456487	     86.22374748	     88.37612210
      7.95000000	    -15.44331442	      4.35812581	      4.78066096	      0.97512509	      1.00994803	      0.03979210	     24.08275615	     -7.45213098	     -7.95286851	     17.58881497	      0.30698273	    -15.83519918	      7.12899894	     -7.49999987	     20.66741025	      0.55037991	     -6.76619499	     10.71107460	      0.18694352	    -29.07363558	     -5.95979608	     -7.49999987	     -6.87214698	      0.10563793	      6.64392297	    -43.89885192	    -12.58378543	    -35.94583696	     80.15731437	     93.53199062	    -15.59110854	    -41.52378264	    -33.28266738	     90.53596092	     93.01554334
      7.96666670	    -15.60507663	      4.46831334	      5.21996307	      0.98300747	      1.04010953	      0.04441321	     20.70679765	     -7.27388654	     -9.37027198	     10.16703191	      0.17744818	    -25.15210399	      9.75038991	     -7.49999987	     18.60358236	      0.49144116	     -8.23518619	      4.51173396	      0.07874461	    -39.68175081	     -2.18244826	     -7.49999987	     -5.79515748	     -0.48309742	      6.95552025	    -47.52590635	    -10.18660304	    -42.26893447	     81.60896505	     96.76299171	    -16.28608416	    -44.48053954	    -36.75892328	     94.11436959	     96.46043584
      7.98333330	    -15.71871035	      4.52099063	      5.81378879	      0.99059876	      1.06520458	      0.04565103	     18.42521219	     -7.28442304	    -10.80351993	      4.78137955	      0.08345082	    -33.17803595	     11.10275683	     -7.49999987	     17.81091100	      0.33258015	    -10.00111706	      0.92404448	      0.01612762	    -46.94225703	      0.48788172	     -7.49999987	     -5.08584717	     -0.71304117	      7.17730418	    -50.62084545	     -7.94570674	    -47.55601130	     82.83722018	     94.62695314	    -17.95985305	    -47.27577353	    -38.82827789	     97.73676296	     94.51374835
      8.00000000	    -16.27977202	      4.42241756	      6.26677570	      0.98564528	      1.09054745	      0.04696025	     18.17681841	     -7.33049661	    -11.72724276	      1.62930933	      0.02843681	    -38.47389998	     10.99925457	     -7.49999987	     19.08753617	     -0.06315336	    -11.34665635	      0.35336042	      0.00616730	    -48.66181643	      2.95799475	     -7.49999987	     -4.74809313	     -0.82071804	      6.64478501	    -51.97038722	     -7.40055216	    -51.67085926	     83.16428674	     89.67132654	    -18.19484255	    -49.26560180	    -41.18698171	    100.08304647	     89.37982046
      8.01666670	    -16.36636779	      4.06474186	      6.22801920	      0.99113422	      1.11535822	      0.04701874	     18.50280284	     -7.01683498	    -12.29685299	      0.43951746	      0.00767103	    -41.23896351	     10.82571977	     -7.49999987	     19.85833688	     -0.82109608	    -12.58004139	      0.26281841	      0.00458705	    -49.18552737	      5.03060333	     -7.49999987	     -4.81247786	     -0.38781571	      6.28902336	    -52.53517611	     -8.36125424	    -54.93284852	     80.22572276	     87.39402273	    -17.67329722	    -50.04717893	    -42.88536735	    100.90058715	     87.34065980
      8.03333330	    -16.21748182	      3.50929619	      6.26767284	      0.99415996	      1.14126311	      0.04835267	     18.94029274	     -6.50685214	    -12.18799520	      0.28283682	      0.00493643	    -42.46408587	     11.04040571	     -7.49999987	     20.20040232	     -1.69279710	    -13.45277944	      0.26406695	      0.00460884	    -49.50080538	      6.73857096	     -7.49999987	     -5.13546122	      0.08954151	      5.90196773	    -52.67878579	     -9.72450531	    -57.08365129	     76.53659863	     84.41151389	    -17.00984108	    -50.08656674	    -44.60617319	    100.93759359	     84.79906597
      8.05000000	    -15.76364786	      3.05063174	      6.31586308	      0.99652040	      1.15377154	      0.04989401	     18.96703659	     -5.98351480	    -11.06605635	      0.24339573	      0.00424806	    -42.76240003	     11.38973740	     -7.49999987	     20.05880419	     -2.46183312	    -13.51183051	      0.31393717	      0.00547924	    -49.59725703	      8.05124804	     -7.49999987	     -5.86123120	      0.13492975	      4.76123359	    -52.80602325	    -12.96308459	    -57.62642221	     72.18267695	     84.80972415	    -20.45178617	    -50.23022342	    -50.44034721	    101.97121720	     86.89934434
      8.06666670	    -15.08524893	      2.52786807	      6.29158682	      1.00181825	      1.16465042	      0.04752432	     18.51760135	     -5.54894942	    -10.04005955	      0.27863201	      0.00486305	    -43.62762053	     11.46878899	     -7.49999987	     19.52462916	     -3.24330600	    -12.24101850	      0.39389580	      0.00687478	    -49.55953139	      9.11557686	     -7.49999987	     -6.47912417	      0.69440892	      4.94516647	    -53.89562088	    -14.99388246	    -59.54705351	     69.30336167	     81.60777066	    -20.31975825	    -51.03144289	    -50.94202612	    102.06635469	     83.92974901
      8.08333330	    -14.62644698	      2.41404682	      5.92468864	      1.00986461	      1.17989449	      0.04746047	     18.20092052	     -5.51320975	     -8.99629055	      0.33857461	      0.00590924	    -44.28843781	     11.74966809	     -7.49999987	     19.10511978	     -3.66097017	    -11.20706505	      0.48056439	      0.00838743	    -49.41670104	      9.35040984	     -7.49999987	     -7.03949566	      0.41182466	      2.51030529	    -52.34917839	    -19.81990051	    -59.27939316	     65.08691607	     81.72717411	    -26.23056375	    -49.77349775	    -57.72655220	    104.58663967	     87.23049300
